HIERARCHY
ROOT root
{
	OFFSET	0	13.1	24.9
	CHANNELS 6  Xposition Yposition Zposition Xrotation Yrotation Zrotation
	JOINT spine_1
	{
		OFFSET	0	9.99999	0
		CHANNELS 3  Xrotation Yrotation Zrotation
		JOINT spine_2
		{
			OFFSET	0	112	-10
			CHANNELS 3  Xrotation Yrotation Zrotation
			JOINT spine_3
			{
				OFFSET	0	206.5	19.3
				CHANNELS 3  Xrotation Yrotation Zrotation
				JOINT spine_4
				{
					OFFSET	0	110.4	14.6
					CHANNELS 3  Xrotation Yrotation Zrotation
					JOINT neck_1
					{
						OFFSET	0	71.8	-50.3
						CHANNELS 3  Xrotation Yrotation Zrotation
						JOINT neck_2
						{
							OFFSET	0	86.2	-25.8
							CHANNELS 3  Xrotation Yrotation Zrotation
							JOINT head_ee
							{
								OFFSET	0	179.8	-8.7
								CHANNELS 3  Xrotation Yrotation Zrotation
								End Site
								{
									OFFSET	1	0	0
								}
							}
						}
					}
					JOINT left_clavicle
					{
						OFFSET	-43.2	22.4	-70.8
						CHANNELS 3  Xrotation Yrotation Zrotation
						JOINT left_shoulder
						{
							OFFSET	-93.9	-5.79999	48.7
							CHANNELS 3  Xrotation Yrotation Zrotation
							JOINT left_elbow
							{
								OFFSET	-291.4	-30.8	15.2
								CHANNELS 3  Xrotation Yrotation Zrotation
								JOINT left_lowarm_twist
								{
									OFFSET	-110.7	-3.89999	13.6
									CHANNELS 3  Xrotation Yrotation Zrotation
									JOINT left_hand
									{
										OFFSET	-110.7	-3.89999	13.6
										CHANNELS 3  Xrotation Yrotation Zrotation
										JOINT left_ee
										{
											OFFSET	-80.8	-5.10001	12.1
											CHANNELS 3  Xrotation Yrotation Zrotation
											End Site
											{
												OFFSET	1	0	0
											}
										}
									}
								}
							}
						}
					}
					JOINT right_clavicle
					{
						OFFSET	43.2	22.4	-70.8
						CHANNELS 3  Xrotation Yrotation Zrotation
						JOINT right_shoulder
						{
							OFFSET	93.9	-5.79999	48.7
							CHANNELS 3  Xrotation Yrotation Zrotation
							JOINT right_elbow
							{
								OFFSET	291.4	-30.8	15.2
								CHANNELS 3  Xrotation Yrotation Zrotation
								JOINT right_lowarm_twist
								{
									OFFSET	110.7	-3.89999	13.6
									CHANNELS 3  Xrotation Yrotation Zrotation
									JOINT right_hand
									{
										OFFSET	110.7	-3.89999	13.6
										CHANNELS 3  Xrotation Yrotation Zrotation
										JOINT right_ee
										{
											OFFSET	80.8	-5.10001	12.1
											CHANNELS 3  Xrotation Yrotation Zrotation
											End Site
											{
												OFFSET	1	0	0
											}
										}
									}
								}
							}
						}
					}
				}
			}
		}
	}
	JOINT left_hip
	{
		OFFSET	-82.8	-127.5	0.300001
		CHANNELS 3  Xrotation Yrotation Zrotation
		JOINT left_knee
		{
			OFFSET	-28.2	-396.7	2.2
			CHANNELS 3  Xrotation Yrotation Zrotation
			JOINT left_ankle
			{
				OFFSET	-11.7	-411.3	35.4
				CHANNELS 3  Xrotation Yrotation Zrotation
				JOINT left_toes
				{
					OFFSET	0	-60	-88.6
					CHANNELS 3  Xrotation Yrotation Zrotation
					JOINT left_foot_ee
					{
						OFFSET	-22.5	-16.5	-42.2
						CHANNELS 3  Xrotation Yrotation Zrotation
						End Site
						{
							OFFSET	1	0	0
						}
					}
				}
			}
		}
	}
	JOINT right_hip
	{
		OFFSET	82.8	-127.5	0.300001
		CHANNELS 3  Xrotation Yrotation Zrotation
		JOINT right_knee
		{
			OFFSET	28.2	-396.7	2.2
			CHANNELS 3  Xrotation Yrotation Zrotation
			JOINT right_ankle
			{
				OFFSET	11.7	-411.3	35.4
				CHANNELS 3  Xrotation Yrotation Zrotation
				JOINT right_toes
				{
					OFFSET	0	-60	-88.6
					CHANNELS 3  Xrotation Yrotation Zrotation
					JOINT right_foot_ee
					{
						OFFSET	22.5	-16.5	-42.2
						CHANNELS 3  Xrotation Yrotation Zrotation
						End Site
						{
							OFFSET	1	0	0
						}
					}
				}
			}
		}
	}
}
MOTION
Frames: 14
Frame Time: 0.02
1041.4 574.639 -1682.42 49.0450569777 85.738256263 -48.9665093247 1.32515 0.0299763 0.311794 1.3252 0.0100754 0.313069 1.32526 -0.0488069 0.309406 1.32513 0.000670244 0.313231 -13.8124 5.9602 4.47162 -13.8094 8.62204 6.0992 -0.0 0.0 -0.0 3.33978 22.3878 7.2882 -11.2166 -9.04214 70.4087 0.603619 -16.6476 0.0883155 -8.27147 -0.363787 0.991987 2.56256 24.5393 25.2071 -0.0 0.0 -0.0 8.72079 1.00286 -17.0654 -3.70929 6.1666 -66.9146 1.65118 39.2783 -0.589267 -55.8911 4.77663 -4.955 -0.00872586 -9.55457 -3.90563 0.0 0.0 0.0 18.6331 -10.4855 -0.949403 -9.28333 0.269483 1.39766 1.73889 29.2589 -0.271256 -21.8569 0.0 0.0 -0.0 0.0 -0.0 -14.8808 9.40698 3.70501 -6.01778 -0.200579 -0.901348 27.1793 1.60433 3.61449 -7.26198 0.0 0.0 0.0 0.0 0.0 
1041.4 574.639 -1682.42 57.0456661344 86.1649445453 -56.9870111504 1.32515 0.0299763 0.311794 1.3252 0.0100754 0.313069 1.32526 -0.0488069 0.309406 1.32513 0.000670244 0.313231 -13.8124 5.9602 4.47162 -13.8094 8.62204 6.0992 -0.0 0.0 -0.0 3.33978 22.3878 7.2882 -11.2166 -9.04214 70.4087 0.603619 -16.6476 0.0883155 -8.27147 -0.363787 0.991987 2.56256 24.5393 25.2071 -0.0 0.0 -0.0 8.72079 1.00286 -17.0654 -3.70929 6.1666 -66.9146 1.65118 39.2783 -0.589267 -55.8911 4.77663 -4.955 -0.00872586 -9.55457 -3.90563 0.0 0.0 0.0 18.6331 -10.4855 -0.949403 -9.28333 0.269483 1.39766 1.73889 29.2589 -0.271256 -21.8569 0.0 0.0 -0.0 0.0 -0.0 -14.8808 9.40698 3.70501 -6.01778 -0.200579 -0.901348 27.1793 1.60433 3.61449 -7.26198 0.0 0.0 0.0 0.0 0.0 
1041.4 574.639 -1682.42 69.9373713437 86.5746156987 -69.9043352889 1.32515 0.0299763 0.311794 1.3252 0.0100754 0.313069 1.32526 -0.0488069 0.309406 1.32513 0.000670244 0.313231 -13.8124 5.9602 4.47162 -13.8094 8.62204 6.0992 -0.0 0.0 -0.0 3.33978 22.3878 7.2882 -11.2166 -9.04214 70.4087 0.603619 -16.6476 0.0883155 -8.27147 -0.363787 0.991987 2.56256 24.5393 25.2071 -0.0 0.0 -0.0 8.72079 1.00286 -17.0654 -3.70929 6.1666 -66.9146 1.65118 39.2783 -0.589267 -55.8911 4.77663 -4.955 -0.00872586 -9.55457 -3.90563 0.0 0.0 0.0 18.6331 -10.4855 -0.949403 -9.28333 0.269483 1.39766 1.73889 29.2589 -0.271256 -21.8569 0.0 0.0 -0.0 0.0 -0.0 -14.8808 9.40698 3.70501 -6.01778 -0.200579 -0.901348 27.1793 1.60433 3.61449 -7.26198 0.0 0.0 0.0 0.0 0.0 
1041.4 574.639 -1682.42 81.3315953618 86.7454848062 -81.3178055824 1.32515 0.0299763 0.311794 1.3252 0.0100754 0.313069 1.32526 -0.0488069 0.309406 1.32513 0.000670244 0.313231 -13.8124 5.9602 4.47162 -13.8094 8.62204 6.0992 -0.0 0.0 -0.0 3.33978 22.3878 7.2882 -11.2166 -9.04214 70.4087 0.603619 -16.6476 0.0883155 -8.27147 -0.363787 0.991987 2.56256 24.5393 25.2071 -0.0 0.0 -0.0 8.72079 1.00286 -17.0654 -3.70929 6.1666 -66.9146 1.65118 39.2783 -0.589267 -55.8911 4.77663 -4.955 -0.00872586 -9.55457 -3.90563 0.0 0.0 0.0 18.6331 -10.4855 -0.949403 -9.28333 0.269483 1.39766 1.73889 29.2589 -0.271256 -21.8569 0.0 0.0 -0.0 0.0 -0.0 -14.8808 9.40698 3.70501 -6.01778 -0.200579 -0.901348 27.1793 1.60433 3.61449 -7.26198 0.0 0.0 0.0 0.0 0.0 
1041.4 574.639 -1682.42 95.7645949921 86.7663299645 -95.7737260259 1.32515 0.0299763 0.311794 1.3252 0.0100754 0.313069 1.32526 -0.0488069 0.309406 1.32513 0.000670244 0.313231 -13.8124 5.9602 4.47162 -13.8094 8.62204 6.0992 -0.0 0.0 -0.0 3.33978 22.3878 7.2882 -11.2166 -9.04214 70.4087 0.603619 -16.6476 0.0883155 -8.27147 -0.363787 0.991987 2.56256 24.5393 25.2071 -0.0 0.0 -0.0 8.72079 1.00286 -17.0654 -3.70929 6.1666 -66.9146 1.65118 39.2783 -0.589267 -55.8911 4.77663 -4.955 -0.00872586 -9.55457 -3.90563 0.0 0.0 0.0 18.6331 -10.4855 -0.949403 -9.28333 0.269483 1.39766 1.73889 29.2589 -0.271256 -21.8569 0.0 0.0 -0.0 0.0 -0.0 -14.8808 9.40698 3.70501 -6.01778 -0.200579 -0.901348 27.1793 1.60433 3.61449 -7.26198 0.0 0.0 0.0 0.0 0.0 
1041.4 574.639 -1682.42 103.882830258 86.6857830888 -103.905186317 1.32515 0.0299763 0.311794 1.3252 0.0100754 0.313069 1.32526 -0.0488069 0.309406 1.32513 0.000670244 0.313231 -13.8124 5.9602 4.47162 -13.8094 8.62204 6.0992 -0.0 0.0 -0.0 3.33978 22.3878 7.2882 -11.2166 -9.04214 70.4087 0.603619 -16.6476 0.0883155 -8.27147 -0.363787 0.991987 2.56256 24.5393 25.2071 -0.0 0.0 -0.0 8.72079 1.00286 -17.0654 -3.70929 6.1666 -66.9146 1.65118 39.2783 -0.589267 -55.8911 4.77663 -4.955 -0.00872586 -9.55457 -3.90563 0.0 0.0 0.0 18.6331 -10.4855 -0.949403 -9.28333 0.269483 1.39766 1.73889 29.2589 -0.271256 -21.8569 0.0 0.0 -0.0 0.0 -0.0 -14.8808 9.40698 3.70501 -6.01778 -0.200579 -0.901348 27.1793 1.60433 3.61449 -7.26198 0.0 0.0 0.0 0.0 0.0 
1041.4 574.639 -1682.42 116.876863376 86.3925935028 -116.922713912 1.32515 0.0299763 0.311794 1.3252 0.0100754 0.313069 1.32526 -0.0488069 0.309406 1.32513 0.000670244 0.313231 -13.8124 5.9602 4.47162 -13.8094 8.62204 6.0992 -0.0 0.0 -0.0 3.33978 22.3878 7.2882 -11.2166 -9.04214 70.4087 0.603619 -16.6476 0.0883155 -8.27147 -0.363787 0.991987 2.56256 24.5393 25.2071 -0.0 0.0 -0.0 8.72079 1.00286 -17.0654 -3.70929 6.1666 -66.9146 1.65118 39.2783 -0.589267 -55.8911 4.77663 -4.955 -0.00872586 -9.55457 -3.90563 0.0 0.0 0.0 18.6331 -10.4855 -0.949403 -9.28333 0.269483 1.39766 1.73889 29.2589 -0.271256 -21.8569 0.0 0.0 -0.0 0.0 -0.0 -14.8808 9.40698 3.70501 -6.01778 -0.200579 -0.901348 27.1793 1.60433 3.61449 -7.26198 0.0 0.0 0.0 0.0 0.0 
1041.4 574.639 -1682.42 129.89396285 85.8050744788 -129.969615126 1.32515 0.0299763 0.311794 1.3252 0.0100754 0.313069 1.32526 -0.0488069 0.309406 1.32513 0.000670244 0.313231 -13.8124 5.9602 4.47162 -13.8094 8.62204 6.0992 -0.0 0.0 -0.0 3.33978 22.3878 7.2882 -11.2166 -9.04214 70.4087 0.603619 -16.6476 0.0883155 -8.27147 -0.363787 0.991987 2.56256 24.5393 25.2071 -0.0 0.0 -0.0 8.72079 1.00286 -17.0654 -3.70929 6.1666 -66.9146 1.65118 39.2783 -0.589267 -55.8911 4.77663 -4.955 -0.00872586 -9.55457 -3.90563 0.0 0.0 0.0 18.6331 -10.4855 -0.949403 -9.28333 0.269483 1.39766 1.73889 29.2589 -0.271256 -21.8569 0.0 0.0 -0.0 0.0 -0.0 -14.8808 9.40698 3.70501 -6.01778 -0.200579 -0.901348 27.1793 1.60433 3.61449 -7.26198 0.0 0.0 0.0 0.0 0.0 
1041.4 574.639 -1682.42 140.097167565 84.9808443087 -140.20545434 1.32515 0.0299763 0.311794 1.3252 0.0100754 0.313069 1.32526 -0.0488069 0.309406 1.32513 0.000670244 0.313231 -13.8124 5.9602 4.47162 -13.8094 8.62204 6.0992 -0.0 0.0 -0.0 3.33978 22.3878 7.2882 -11.2166 -9.04214 70.4087 0.603619 -16.6476 0.0883155 -8.27147 -0.363787 0.991987 2.56256 24.5393 25.2071 -0.0 0.0 -0.0 8.72079 1.00286 -17.0654 -3.70929 6.1666 -66.9146 1.65118 39.2783 -0.589267 -55.8911 4.77663 -4.955 -0.00872586 -9.55457 -3.90563 0.0 0.0 0.0 18.6331 -10.4855 -0.949403 -9.28333 0.269483 1.39766 1.73889 29.2589 -0.271256 -21.8569 0.0 0.0 -0.0 0.0 -0.0 -14.8808 9.40698 3.70501 -6.01778 -0.200579 -0.901348 27.1793 1.60433 3.61449 -7.26198 0.0 0.0 0.0 0.0 0.0 
1026.97474938 577.163 -1674.3385822 148.647123025 83.9003844797 -148.791472277 1.38005 -0.061961 0.202956 1.38007 -0.07475 0.198602 1.37981 -0.110492 0.181168 1.37977 -0.080493 0.196344 -13.348 5.15021 3.88709 -13.3421 7.39195 5.26251 -0.0 0.0 -0.0 4.28242 22.4318 8.62551 -9.96431 -6.28696 69.264 0.584098 -16.1377 0.0828062 -8.07546 -0.35352 0.969117 2.44519 24.4763 24.442 -0.0 0.0 -0.0 8.37013 -0.443294 -16.3206 -4.28793 5.27253 -68.3007 1.56348 37.7552 -0.534646 -54.9215 4.65878 -4.91523 0.130576 -5.53158 -3.16809 0.0 0.0 0.0 17.7038 -7.46468 -0.968267 -9.14884 0.267204 1.37715 1.34821 28.6162 -0.209614 -22.4353 0.0 0.0 -0.0 0.0 -0.0 -14.9147 9.55209 3.82172 -6.86953 -0.221278 -1.03042 25.1595 -0.373187 3.36921 -8.26108 0.0 0.0 0.0 0.0 0.0 
1019.29396741 579.744 -1669.68185809 151.171514015 83.8212339542 -151.312303876 1.43165 -0.0493244 0.0433322 1.43165 -0.0519818 0.0401057 1.43161 -0.0585248 0.029756 1.43161 -0.0530909 0.0386254 -14.5724 5.49905 5.0459 -14.5444 7.4745 6.54932 -0.0 0.0 -0.0 5.39204 22.2327 10.2208 -9.19191 -6.95911 67.4764 0.568769 -15.7354 0.0785972 -8.74812 -0.389081 1.04746 2.65631 22.9499 25.4495 -0.0 0.0 -0.0 8.69445 -1.10287 -16.9524 -6.08827 4.48617 -67.3162 1.47987 36.2422 -0.484323 -55.7983 4.76532 -4.95128 -0.141107 -6.91812 -1.96439 0.0 0.0 0.0 17.2905 -5.93197 -1.11489 -7.38898 0.232958 1.10928 -0.788517 28.0167 0.122695 -23.3757 0.0 0.0 -0.0 0.0 -0.0 -14.8377 9.01917 3.66517 -6.12341 -0.203251 -0.917338 24.0562 -1.35234 3.23485 -9.36791 0.0 0.0 0.0 0.0 0.0 
1019.58694579 579.744 -1669.18642142 156.023619817 82.6623999484 -156.198069129 1.43165 -0.0493244 0.0433322 1.43165 -0.0519818 0.0401057 1.43161 -0.0585248 0.029756 1.43161 -0.0530909 0.0386254 -14.5724 5.49905 5.0459 -14.5444 7.4745 6.54932 -0.0 0.0 -0.0 5.39204 22.2327 10.2208 -9.19191 -6.95911 67.4764 0.568769 -15.7354 0.0785972 -8.74812 -0.389081 1.04746 2.65631 22.9499 25.4495 -0.0 0.0 -0.0 8.69445 -1.10287 -16.9524 -6.08827 4.48617 -67.3162 1.47987 36.2422 -0.484323 -55.7983 4.76532 -4.95128 -0.141107 -6.91812 -1.96439 0.0 0.0 0.0 17.2905 -5.93197 -1.11489 -7.38898 0.232958 1.10928 -0.788517 28.0167 0.122695 -23.3757 0.0 0.0 -0.0 0.0 -0.0 -14.8377 9.01917 3.66517 -6.12341 -0.203251 -0.917338 24.0562 -1.35234 3.23485 -9.36791 0.0 0.0 0.0 0.0 0.0 
1019.8976472 579.744 -1668.68734694 159.595378247 81.4393343241 -159.804252668 1.43165 -0.0493244 0.0433322 1.43165 -0.0519818 0.0401057 1.43161 -0.0585248 0.029756 1.43161 -0.0530909 0.0386254 -14.5724 5.49905 5.0459 -14.5444 7.4745 6.54932 -0.0 0.0 -0.0 5.39204 22.2327 10.2208 -9.19191 -6.95911 67.4764 0.568769 -15.7354 0.0785972 -8.74812 -0.389081 1.04746 2.65631 22.9499 25.4495 -0.0 0.0 -0.0 8.69445 -1.10287 -16.9524 -6.08827 4.48617 -67.3162 1.47987 36.2422 -0.484323 -55.7983 4.76532 -4.95128 -0.141107 -6.91812 -1.96439 0.0 0.0 0.0 17.2905 -5.93197 -1.11489 -7.38898 0.232958 1.10928 -0.788517 28.0167 0.122695 -23.3757 0.0 0.0 -0.0 0.0 -0.0 -14.8377 9.01917 3.66517 -6.12341 -0.203251 -0.917338 24.0562 -1.35234 3.23485 -9.36791 0.0 0.0 0.0 0.0 0.0 
1020.20865854 579.744 -1668.21211546 162.184364123 80.2338247513 -162.426549261 1.43165 -0.0493244 0.0433322 1.43165 -0.0519818 0.0401057 1.43161 -0.0585248 0.029756 1.43161 -0.0530909 0.0386254 -14.5724 5.49905 5.0459 -14.5444 7.4745 6.54932 -0.0 0.0 -0.0 5.39204 22.2327 10.2208 -9.19191 -6.95911 67.4764 0.568769 -15.7354 0.0785972 -8.74812 -0.389081 1.04746 2.65631 22.9499 25.4495 -0.0 0.0 -0.0 8.69445 -1.10287 -16.9524 -6.08827 4.48617 -67.3162 1.47987 36.2422 -0.484323 -55.7983 4.76532 -4.95128 -0.141107 -6.91812 -1.96439 0.0 0.0 0.0 17.2905 -5.93197 -1.11489 -7.38898 0.232958 1.10928 -0.788517 28.0167 0.122695 -23.3757 0.0 0.0 -0.0 0.0 -0.0 -14.8377 9.01917 3.66517 -6.12341 -0.203251 -0.917338 24.0562 -1.35234 3.23485 -9.36791 0.0 0.0 0.0 0.0 0.0 
